<?xml version="1.0" encoding="utf-8"?>
<!-- Generator: Adobe Illustrator 24.0.1, SVG Export Plug-In . SVG Version: 6.00 Build 0)  -->
<svg version="1.1" id="Capa_1" xmlns="http://www.w3.org/2000/svg" xmlns:xlink="http://www.w3.org/1999/xlink" x="0px" y="0px"
	 viewBox="0 0 400 300" style="enable-background:new 0 0 400 300;" xml:space="preserve">
<style type="text/css">
	.st0{fill:#3300FF;}
</style>
<circle class="st0" cx="352" cy="69" r="33.5"/>
<rect x="17" y="201" class="st0" width="83" height="83"/>
<g>
	<g>
		<path d="M111.37,122.43c-8.64-20.46-3.62-45.91,12.03-61.64c1.91-1.92,4.41-4.19,7.29-4.27c3.05-0.09,3.9,3.07,4.04,5.54
			c0.42,7.2-0.38,14.6-0.97,21.78c-1.15,13.95-2.78,27.99-1.59,41.99c1.02,12.01,3.98,24.13,10.51,34.39
			c6.29,9.88,16.48,18.5,28.63,19.17c11.93,0.66,21.38-7.68,27.53-17.09c6.41-9.81,10.52-21.34,12.74-32.8
			c4.54-23.43,1.12-48.37-10.07-69.5c-1.39-2.62-2.9-5.17-4.52-7.65c-0.43,0.75-0.86,1.5-1.3,2.26c16.04-0.86,31.75,2.98,46.82,8.12
			c7.3,2.49,14.52,5.24,21.69,8.08c5.65,2.24,11.28,4.75,16.26,8.28c4.85,3.44,8.92,8.11,10.49,13.94
			c1.76,6.54,0.09,13.44-2.98,19.31c-6.75,12.91-19.7,20.39-30.09,29.99c-10.64,9.82-20.01,25.2-13.53,39.88
			c0.79-0.61,1.57-1.21,2.36-1.82c-14.08-15.2-29.17-29.45-45.15-42.64c-15.89-13.12-32.63-25.21-50.11-36.13
			c-4.36-2.73-8.76-5.38-13.21-7.96c-4.49-2.6-8.99-5.4-13.73-7.53c-4.32-1.95-9.43-3.23-13.82-0.72c-3.24,1.86-4.99,5.34-5.5,8.94
			c-1.2,8.35,2.94,16.84,7.85,23.34c5.44,7.19,12.67,12.91,20.68,17.02c9.3,4.77,19.55,7.39,29.85,8.93
			c5.36,0.8,10.76,1.34,16.16,1.74c4.36,0.32,8.74,0.49,13.1,0.18c8.28-0.58,17.03-2.95,22.51-9.62c5.83-7.11,6.37-16.65,4.92-25.38
			c-1.47-8.85-4.87-17.51-9.03-25.42c-4.18-7.94-9.45-15.31-15.56-21.88c-6.11-6.57-13.12-12.33-20.76-17.04
			c-7.41-4.56-15.48-8.31-24.14-9.66c-7.93-1.24-16.59-0.58-23.19,4.42c-6.68,5.07-9.51,13.29-8.71,21.49
			c0.82,8.49,4.74,16.61,10.52,22.83c6.62,7.12,14.99,12.28,23.1,17.49c4.04,2.59,8.05,5.23,11.86,8.16
			c0.5-0.86,1.01-1.73,1.51-2.59c-23.46-10.77-50.32-4.39-74.3-13.14c-9.82-3.58-19.11-9.77-23.75-19.44
			C62.18,64,64.99,49.65,70.72,38.46c4.93-9.63,13.58-19.31,25.06-20.21c12.33-0.97,23.31,8.09,30.08,17.56
			c3.65,5.11,6.47,11.17,5.87,17.59c-0.51,5.53-3.63,10.47-7.55,14.26c-9.6,9.28-23.28,11.19-35.68,14.37
			c-11.26,2.89-22.91,7.55-29.97,17.28c-7.64,10.53-6.49,24.39-2.45,36.08c7.58,21.92,23.61,41.04,42.74,53.88
			c4.77,3.2,9.79,6.04,15.01,8.46c4.91,2.28,10.04,4.48,15.39,5.41c4.77,0.83,10.24,0.89,14.45-1.85c4.85-3.14,6.35-8.88,5.1-14.32
			c-1.39-6.06-5.24-11.28-8.77-16.27c-3.76-5.31-7.78-10.55-12.87-14.67c-9.02-7.31-22.31-10.8-32.32-3.31
			c-8.62,6.45-12.27,17.9-11.13,28.34c0.73,6.66,2.99,12.99,5.88,19c2.86,5.95,6.25,11.73,9.86,17.26
			c6.62,10.13,16.64,20.32,29.78,19.59c12.12-0.67,20.14-11.47,22.59-22.52c1.49-6.7,1.4-13.61,1.15-20.43c-0.07-1.92-3.03-1.94-3,0
			c0.34,19.8-3.23,39.56-10.46,57.99c-2.05,5.22-4.41,10.31-7.03,15.27c0.86,0,1.73,0,2.59,0c-7.52-15.15-15.39-31.17-14.42-48.55
			c0.44-7.75,2.78-15.39,7.46-21.64c4.12-5.51,9.85-9.66,16.07-12.52c14.5-6.67,30.86-5.67,45.93-1.63
			c8.5,2.28,16.74,5.44,24.86,8.81c7.34,3.04,14.62,6.42,21.2,10.9c12.01,8.18,22.46,22.27,19.77,37.6
			c-0.31,1.76-0.8,3.47-1.44,5.14c-0.34,0.89,0.54,1.95,1.45,1.9c24.57-1.37,48.7-10.91,67.26-27.15
			c8.98-7.85,16.56-17.92,18.05-30.06c0.72-5.89-0.12-11.99-2.85-17.29c-2.37-4.61-6.21-8.36-10.63-11.01
			c-9.97-5.96-21.96-6.32-33.04-3.83c-6.67,1.5-13.09,3.94-19.41,6.51c-5.24,2.13-10.52,4.26-15.52,6.92
			c-9.57,5.1-17.97,12.75-19.29,24.07c-1.32,11.38,4.26,22.84,11.7,31.12c13.41,14.91,35.2,21.93,54.77,17.58
			c2.37-0.53,4.7-1.23,6.97-2.1c1.05-0.4,1.66-2.17,0.36-2.74c-17.31-7.65-34.99-14.48-52.96-20.41
			c-8.93-2.95-17.93-5.67-26.98-8.18c-8.45-2.34-17.01-4.24-25.47-6.55c-6.69-1.83-13.72-4.17-18.98-8.88
			c-5.86-5.25-7.97-12.88-6.56-20.54c2.88-15.6,16.1-27.47,29.6-34.44c15.67-8.09,33.35-10.6,50.76-11.68
			c9.55-0.59,19.11-0.8,28.66-1.33c8.67-0.49,17.54-1.29,25.7-4.45c7.19-2.78,13.63-7.44,17.74-14.06c3.95-6.36,5-14.09,2.32-21.14
			c-2.74-7.21-8.33-12.89-14.32-17.54c-6.67-5.17-14.02-9.56-21.52-13.4c-7.8-3.99-15.93-7.35-24.27-10.01
			c-8.25-2.64-17.06-5.15-25.77-5.49c-7.73-0.3-15.26,2.07-20.38,8.07c-4.5,5.28-6.73,12.06-7.57,18.86
			c-1.91,15.58,3.61,32.25,12.96,44.64c8.99,11.91,21.74,19.76,34.98,26.21c13.19,6.42,27.03,11.7,39.4,19.68
			c3,1.94,5.91,4.03,8.64,6.34c2.88,2.44,5.82,5.09,8,8.18c2.16,3.06,3.91,7.13,1.71,10.65c-1.57,2.52-4.7,3.52-7.48,3.92
			c-3.42,0.49-6.88,0.12-10.27-0.35c-4-0.56-7.98-1.24-11.93-2.07c-7.98-1.67-15.86-3.9-23.48-6.8
			c-15.03-5.71-29.14-14.19-40.34-25.81c-10.51-10.9-17.93-24.81-21.06-39.63c-3.07-14.5-1.74-30.09,5.36-43.25
			c3.66-6.77,8.76-12.88,15.18-17.19c7.27-4.87,15.67-6.66,24.31-7.04c9.06-0.4,18.13,0.35,27.18-0.51
			c8.52-0.8,16.94-2.68,24.99-5.6c7.89-2.87,15.41-6.7,22.36-11.42c1.59-1.08,0.09-3.68-1.51-2.59
			c-14.47,9.84-31.5,15.78-48.98,16.86c-9.18,0.57-18.4-0.3-27.58,0.49c-8.38,0.72-16.43,3.02-23.33,7.95
			c-12.46,8.91-19.91,23.5-21.93,38.48c-2.01,14.94,1.13,30.25,7.67,43.73c6.89,14.2,17.72,25.93,30.66,34.86
			c13.4,9.24,28.8,15.39,44.57,19.2c3.93,0.95,7.89,1.75,11.88,2.43c3.73,0.63,7.52,1.3,11.3,1.45c6,0.24,13.6-1.04,15.92-7.47
			c2.77-7.7-4.68-14.95-9.85-19.54c-5.46-4.84-11.6-8.83-17.99-12.33c-12.98-7.1-26.93-12.24-39.91-19.36
			c-6.34-3.48-12.46-7.44-17.84-12.31c-6-5.43-10.91-11.93-14.48-19.19c-3.6-7.34-5.8-15.43-6.32-23.59
			c-0.45-7.04,0.44-14.39,3.65-20.75c3.43-6.79,9.41-11.38,17.09-12.1c4.41-0.41,8.84,0.18,13.16,1.04
			c4.35,0.87,8.67,1.96,12.93,3.22c16.72,4.93,33.04,12.64,47.03,23.1c6.09,4.55,12.19,10.35,14.64,17.75
			c2.42,7.31,0.38,14.92-4.45,20.76c-11.49,13.87-31.45,13.86-47.91,14.55c-18.67,0.78-37.74,1.13-55.78,6.57
			c-14.76,4.45-28.99,12.33-38.52,24.71c-4.91,6.38-8.53,14-8.97,22.14c-0.41,7.59,2.59,14.84,8.41,19.75
			c5.4,4.57,12.22,7.06,18.95,8.94c8.44,2.36,17.02,4.22,25.48,6.55c18.38,5.06,36.51,11.03,54.31,17.88
			c8.65,3.33,17.22,6.88,25.7,10.62c0.12-0.91,0.24-1.83,0.36-2.74c-17.64,6.72-38.5,2.7-53.03-9.18
			c-7.82-6.4-14.03-15.19-16.14-25.18c-1.18-5.58-0.86-11.55,1.76-16.69c2.25-4.42,5.86-7.94,9.91-10.73
			c4.17-2.86,8.75-5.07,13.37-7.07c5.52-2.39,11.11-4.7,16.8-6.66c10.81-3.73,22.5-5.94,33.65-2.33c10,3.24,17.84,11.07,18.87,21.85
			c1.11,11.63-4.7,22.25-12.57,30.38c-7.99,8.26-17.83,14.86-28.14,19.88c-10.42,5.08-21.69,8.49-33.18,10.06
			c-2.83,0.39-5.68,0.64-8.54,0.8c0.48,0.63,0.96,1.27,1.45,1.9c5.8-15.05-2.16-31.6-13.66-41.51c-6.34-5.47-13.72-9.53-21.31-12.96
			c-8.14-3.68-16.51-7.01-25.01-9.74c-16.03-5.16-33.55-7.71-49.8-2.01c-6.85,2.41-13.31,6.13-18.44,11.32
			c-5.54,5.6-9.16,12.77-10.67,20.49c-3.46,17.73,3.25,34.99,10.86,50.7c1.02,2.11,2.07,4.21,3.11,6.31c0.5,1,2.08,0.96,2.59,0
			c9.44-17.86,15.31-37.49,17.24-57.6c0.55-5.71,0.76-11.45,0.66-17.18c-1,0-2,0-3,0c0.45,12.3,0.26,26.48-9.73,35.29
			c-4.32,3.81-10.03,5.41-15.71,4.37c-6.06-1.12-11.34-4.52-15.57-8.9c-4.46-4.62-7.83-10.16-11.08-15.67
			c-3.38-5.73-6.62-11.61-8.8-17.91c-3.64-10.53-3.88-22.55,3.21-31.75c3.14-4.07,7.6-7,12.73-7.74c6.08-0.88,12.28,1.27,17.33,4.56
			c5.3,3.46,9.51,8.41,13.24,13.47c3.63,4.92,7.68,10.1,9.68,15.94c0.93,2.72,1.41,5.69,0.47,8.48c-0.79,2.34-2.54,4.19-4.75,5.27
			c-4.36,2.12-9.84,1.35-14.34,0.13c-5.24-1.43-10.32-3.75-15.14-6.23c-4.99-2.56-9.78-5.5-14.33-8.78
			c-9.21-6.65-17.44-14.78-24.18-23.92c-6.82-9.26-12.67-19.8-15.56-31c-1.55-6.02-2.22-12.44-0.88-18.57
			c1.27-5.81,4.38-10.87,8.81-14.82c9.25-8.26,21.7-10.71,33.37-13.55c11.74-2.85,23.72-6.91,31.18-17.03
			c3.19-4.33,5.11-9.63,4.84-15.05c-0.31-6.1-3.07-11.78-6.61-16.65c-6.75-9.26-16.82-17.78-28.7-18.67
			c-11.25-0.84-20.86,6.18-27.18,14.9c-7.06,9.73-11.39,22.64-10.37,34.7c0.94,11.12,6.88,20.48,15.97,26.77
			c8.67,6,19.23,9.09,29.58,10.58c12.72,1.83,25.67,1.46,38.37,3.46c6.36,1,12.65,2.6,18.52,5.29c1.78,0.82,3.03-1.42,1.51-2.59
			c-13.84-10.66-32.57-17.86-40.64-34.38c-3.37-6.89-4.92-15.4-1.96-22.71c2.93-7.25,10.04-11.42,17.61-12.14
			c7.99-0.75,16.21,1.37,23.41,4.74c7.62,3.56,14.75,8.25,21.13,13.71c12.85,11.02,22.92,25.35,28.59,41.32
			c2.84,7.99,5.08,16.9,3.43,25.39c-0.79,4.06-2.53,7.87-5.43,10.85c-2.74,2.82-6.26,4.68-10,5.81c-8.02,2.42-16.61,1.9-24.85,1.22
			c-10.2-0.84-20.42-2.24-30.2-5.32c-16.25-5.11-32.69-16.21-38-33.24c-2.01-6.45-1.27-17.11,7.86-16.61
			c4.86,0.27,9.38,3.3,13.51,5.61c4.27,2.39,8.51,4.85,12.71,7.37c16.74,10.07,32.86,21.18,48.2,33.28
			c15.31,12.07,29.86,25.1,43.54,38.99c3.32,3.37,6.58,6.79,9.8,10.26c1.24,1.34,3-0.36,2.36-1.82
			c-5.87-13.32,3.59-27.49,13.06-36.24c10.6-9.79,23.67-17.43,30.56-30.6c3.09-5.91,4.84-12.61,3.78-19.29
			c-0.96-6.07-4.4-11.4-8.97-15.41c-4.66-4.08-10.22-6.96-15.88-9.39c-6.78-2.92-13.74-5.49-20.69-8
			c-17.01-6.15-34.85-11.14-53.11-10.16c-1.07,0.06-1.95,1.25-1.3,2.26c13.16,20.18,18.39,45.04,15.25,68.88
			c-1.56,11.83-5.19,23.56-10.99,34.01c-5.35,9.63-13.92,19.56-25.84,19.67c-12.3,0.11-22.57-9.25-28.5-19.25
			c-6.28-10.6-8.81-23.04-9.42-35.22c-0.72-14.38,1.21-28.71,2.24-43.03c0.26-3.64,0.47-7.28,0.57-10.92
			c0.08-2.97,0.34-6.17-0.43-9.08c-0.66-2.51-2.41-4.69-5.03-5.25c-2.82-0.61-5.72,0.72-7.95,2.36c-4.4,3.24-7.99,7.97-10.86,12.56
			c-2.89,4.62-5.12,9.67-6.68,14.89c-3.14,10.58-3.47,22.06-0.65,32.75c0.7,2.64,1.61,5.2,2.67,7.71
			C109.53,125.71,112.12,124.19,111.37,122.43L111.37,122.43z"/>
	</g>
</g>
</svg>
